<svg width="52" height="65" viewBox="0 0 52 65" fill="none" xmlns="http://www.w3.org/2000/svg">
<g clip-path="url(#clip0_32583_94867)">
<path d="M17.0893 55.151C14.1981 52.5081 13.354 46.9548 14.5586 42.9316C16.6473 45.4682 19.5414 46.2717 22.539 46.7253C27.1667 47.4252 31.7115 47.1634 36.0105 45.0482C36.5023 44.8061 36.9568 44.4841 37.4941 44.1579C37.8975 45.3282 38.0025 46.5097 37.8616 47.7121C37.519 50.6407 36.0616 52.9028 33.7436 54.6177C32.8167 55.3036 31.8359 55.9168 30.8786 56.5635C27.9376 58.5513 27.1419 60.882 28.247 64.2722C28.2732 64.3554 28.2967 64.4379 28.3561 64.6395C26.8545 63.9672 25.7577 62.9886 24.9219 61.7021C24.0392 60.3445 23.6192 58.8425 23.5972 57.2172C23.5861 56.4263 23.5861 55.6283 23.4797 54.8486C23.22 52.9476 22.3276 52.0965 20.6465 52.0475C18.9211 51.9972 17.5563 53.0638 17.1943 54.7436C17.1667 54.8724 17.1266 54.9998 17.0866 55.1496L17.0893 55.151Z" fill="#17191E"/>
<path d="M0.585938 42.2615C0.585938 42.2615 9.14752 38.0908 17.733 38.0908L24.2062 18.0575C24.4485 17.0887 25.1561 16.4302 25.955 16.4302C26.7539 16.4302 27.4615 17.0887 27.7038 18.0575L34.177 38.0908C44.3452 38.0908 51.3241 42.2615 51.3241 42.2615C51.3241 42.2615 36.7815 2.64478 36.7531 2.56529C36.3357 1.39401 35.6311 0.639648 34.6811 0.639648H17.2304C16.2804 0.639648 15.6042 1.39401 15.1584 2.56529C15.127 2.64329 0.585938 42.2615 0.585938 42.2615Z" fill="#17191E"/>
</g>
<defs>
<clipPath id="clip0_32583_94867">
<rect width="50.8411" height="64" fill="white" transform="translate(0.585938 0.639648)"/>
</clipPath>
</defs>
</svg>
