<svg width="65" height="64" viewBox="0 0 65 64" fill="none" xmlns="http://www.w3.org/2000/svg">
<g clip-path="url(#clip0_32727_207333)">
<circle cx="32.5781" cy="32" r="32" fill="#092E20"/>
<path d="M47.1716 23.5493V40.106C47.1716 45.8107 46.7542 48.5468 45.5021 50.9122C44.3425 53.1852 42.8118 54.6225 39.6583 56.1995L33.0261 53.0457C36.1799 51.5618 37.7103 50.2636 38.6841 48.2685C39.7047 46.228 40.0296 43.8626 40.0296 37.6481V23.5493H47.1716ZM35.8095 12.5195V45.5791C32.1456 46.2747 29.4555 46.553 26.5339 46.553C17.8146 46.553 13.2695 42.6111 13.2695 35.0511C13.2695 27.7697 18.0931 23.0394 25.5598 23.0394C26.7191 23.0394 27.6003 23.1319 28.6672 23.4101V12.5195H35.8095ZM26.2557 28.7899C22.6381 28.7899 20.551 31.0162 20.551 34.9117C20.551 38.715 22.5454 40.8019 26.2093 40.8019C26.9974 40.8019 27.6469 40.7555 28.6672 40.6167V29.1606C27.8324 28.8827 27.1368 28.7899 26.2557 28.7899ZM47.1716 12.5575V19.8853H40.0296V12.5575H47.1716Z" fill="#FFFFFD"/>
</g>
<defs>
<clipPath id="clip0_32727_207333">
<rect width="64" height="64" fill="white" transform="translate(0.578125)"/>
</clipPath>
</defs>
</svg>
