<svg width="120" height="36" viewBox="0 0 120 36" fill="none" xmlns="http://www.w3.org/2000/svg">
<rect x="0.5" y="0.5" width="119" height="35" rx="7.5" fill="#EFF2F8"/>
<rect x="0.5" y="0.5" width="119" height="35" rx="7.5" stroke="#C9D0DE"/>
<path d="M31.207 24.667C30.0126 24.667 28.9848 24.2364 28.1237 23.3753C27.2626 22.5142 26.832 21.4864 26.832 20.292C26.832 19.2087 27.1758 18.2538 27.8633 17.4274C28.5508 16.601 29.4362 16.1045 30.5195 15.9378C30.7973 14.5906 31.4501 13.4899 32.4779 12.6357C33.5056 11.7816 34.6931 11.3545 36.0404 11.3545C37.6098 11.3545 38.9258 11.9205 39.9883 13.0524C41.0508 14.1844 41.582 15.542 41.582 17.1253V17.6253C42.582 17.5975 43.4293 17.9205 44.1237 18.5941C44.8181 19.2677 45.1654 20.1184 45.1654 21.1462C45.1654 22.1045 44.8181 22.9309 44.1237 23.6253C43.4293 24.3198 42.6029 24.667 41.6445 24.667H36.6237C36.2904 24.667 35.9987 24.542 35.7487 24.292C35.4987 24.042 35.3737 23.7503 35.3737 23.417V18.042L34.082 19.3337C33.957 19.4587 33.8112 19.5177 33.6445 19.5107C33.4779 19.5038 33.332 19.4378 33.207 19.3128C33.082 19.1878 33.0195 19.0385 33.0195 18.8649C33.0195 18.6913 33.082 18.542 33.207 18.417L35.5612 16.0628C35.6306 15.9934 35.7001 15.9448 35.7695 15.917C35.839 15.8892 35.9154 15.8753 35.9987 15.8753C36.082 15.8753 36.1584 15.8892 36.2279 15.917C36.2973 15.9448 36.3668 15.9934 36.4362 16.0628L38.8112 18.4378C38.9362 18.5628 38.9987 18.7087 38.9987 18.8753C38.9987 19.042 38.9362 19.1878 38.8112 19.3128C38.6862 19.4378 38.5369 19.5003 38.3633 19.5003C38.1897 19.5003 38.0404 19.4378 37.9154 19.3128L36.6237 18.042V23.417H41.6445C42.2695 23.417 42.8043 23.1948 43.2487 22.7503C43.6931 22.3059 43.9154 21.7712 43.9154 21.1462C43.9154 20.5212 43.6931 19.9864 43.2487 19.542C42.8043 19.0975 42.2695 18.8753 41.6445 18.8753H40.332V17.1253C40.332 15.8892 39.9119 14.8267 39.0716 13.9378C38.2313 13.0489 37.1931 12.6045 35.957 12.6045C34.7209 12.6045 33.6793 13.0489 32.832 13.9378C31.9848 14.8267 31.5612 15.8892 31.5612 17.1253H31.1654C30.3043 17.1253 29.5751 17.4274 28.9779 18.0316C28.3806 18.6357 28.082 19.3823 28.082 20.2712C28.082 21.1323 28.3876 21.8719 28.9987 22.4899C29.6098 23.108 30.3459 23.417 31.207 23.417H33.4987C33.6793 23.417 33.8286 23.476 33.9466 23.5941C34.0647 23.7121 34.1237 23.8614 34.1237 24.042C34.1237 24.2225 34.0647 24.3719 33.9466 24.4899C33.8286 24.608 33.6793 24.667 33.4987 24.667H31.207Z" fill="#1D2025"/>
<path d="M58.212 22.18C57.58 22.18 57.02 22.048 56.532 21.784C56.052 21.512 55.676 21.14 55.404 20.668C55.132 20.188 54.996 19.636 54.996 19.012V13.6H56.016V19.012C56.016 19.452 56.108 19.844 56.292 20.188C56.484 20.524 56.748 20.788 57.084 20.98C57.42 21.164 57.804 21.256 58.236 21.256C58.676 21.256 59.064 21.164 59.4 20.98C59.744 20.788 60.008 20.524 60.192 20.188C60.384 19.844 60.48 19.452 60.48 19.012V13.6H61.488V19.012C61.488 19.636 61.352 20.188 61.08 20.668C60.808 21.14 60.424 21.512 59.928 21.784C59.432 22.048 58.86 22.18 58.212 22.18ZM63.3844 24.4V16H64.2844L64.3444 17.104V24.4H63.3844ZM66.3724 22.144C65.8684 22.144 65.4244 22.012 65.0404 21.748C64.6644 21.484 64.3724 21.116 64.1644 20.644C63.9564 20.164 63.8524 19.616 63.8524 19C63.8524 18.376 63.9564 17.828 64.1644 17.356C64.3724 16.884 64.6644 16.516 65.0404 16.252C65.4244 15.988 65.8684 15.856 66.3724 15.856C66.9084 15.856 67.3804 15.988 67.7884 16.252C68.1964 16.516 68.5124 16.884 68.7364 17.356C68.9684 17.828 69.0844 18.376 69.0844 19C69.0844 19.616 68.9684 20.164 68.7364 20.644C68.5124 21.116 68.1964 21.484 67.7884 21.748C67.3804 22.012 66.9084 22.144 66.3724 22.144ZM66.1564 21.268C66.5324 21.268 66.8644 21.172 67.1524 20.98C67.4484 20.788 67.6804 20.52 67.8484 20.176C68.0244 19.832 68.1124 19.44 68.1124 19C68.1124 18.56 68.0284 18.168 67.8604 17.824C67.7004 17.48 67.4724 17.212 67.1764 17.02C66.8804 16.828 66.5444 16.732 66.1684 16.732C65.8164 16.732 65.5004 16.828 65.2204 17.02C64.9484 17.212 64.7324 17.48 64.5724 17.824C64.4204 18.168 64.3444 18.56 64.3444 19C64.3444 19.44 64.4204 19.832 64.5724 20.176C64.7324 20.52 64.9484 20.788 65.2204 20.98C65.4924 21.172 65.8044 21.268 66.1564 21.268ZM70.4142 22V13.6H71.3742V22H70.4142ZM75.7029 22.144C75.1189 22.144 74.5989 22.012 74.1429 21.748C73.6949 21.476 73.3429 21.104 73.0869 20.632C72.8309 20.16 72.7029 19.616 72.7029 19C72.7029 18.384 72.8269 17.84 73.0749 17.368C73.3309 16.896 73.6829 16.528 74.1309 16.264C74.5869 15.992 75.1029 15.856 75.6789 15.856C76.2709 15.856 76.7909 15.992 77.2389 16.264C77.6949 16.528 78.0469 16.896 78.2949 17.368C78.5509 17.84 78.6789 18.384 78.6789 19C78.6789 19.616 78.5509 20.16 78.2949 20.632C78.0469 21.104 77.6989 21.476 77.2509 21.748C76.8029 22.012 76.2869 22.144 75.7029 22.144ZM75.7029 21.256C76.1029 21.256 76.4509 21.16 76.7469 20.968C77.0429 20.776 77.2749 20.512 77.4429 20.176C77.6189 19.84 77.7069 19.448 77.7069 19C77.7069 18.552 77.6189 18.16 77.4429 17.824C77.2749 17.488 77.0389 17.224 76.7349 17.032C76.4309 16.84 76.0789 16.744 75.6789 16.744C75.2869 16.744 74.9389 16.84 74.6349 17.032C74.3389 17.224 74.1029 17.488 73.9269 17.824C73.7589 18.16 73.6749 18.552 73.6749 19C73.6749 19.44 73.7589 19.832 73.9269 20.176C74.1029 20.512 74.3429 20.776 74.6469 20.968C74.9589 21.16 75.3109 21.256 75.7029 21.256ZM84.4519 22L84.4039 20.884V16H85.3639V22H84.4519ZM82.3759 22.144C81.8399 22.144 81.3679 22.012 80.9599 21.748C80.5519 21.484 80.2319 21.116 79.9999 20.644C79.7759 20.164 79.6639 19.616 79.6639 19C79.6639 18.376 79.7759 17.828 79.9999 17.356C80.2319 16.884 80.5519 16.516 80.9599 16.252C81.3679 15.988 81.8399 15.856 82.3759 15.856C82.8799 15.856 83.3199 15.988 83.6959 16.252C84.0799 16.516 84.3759 16.884 84.5839 17.356C84.7919 17.828 84.8959 18.376 84.8959 19C84.8959 19.616 84.7919 20.164 84.5839 20.644C84.3759 21.116 84.0799 21.484 83.6959 21.748C83.3199 22.012 82.8799 22.144 82.3759 22.144ZM82.5919 21.268C82.9439 21.268 83.2559 21.172 83.5279 20.98C83.7999 20.788 84.0119 20.52 84.1639 20.176C84.3239 19.832 84.4039 19.44 84.4039 19C84.4039 18.56 84.3239 18.168 84.1639 17.824C84.0119 17.48 83.7999 17.212 83.5279 17.02C83.2559 16.828 82.9399 16.732 82.5799 16.732C82.2039 16.732 81.8679 16.828 81.5719 17.02C81.2839 17.212 81.0559 17.48 80.8879 17.824C80.7199 18.168 80.6359 18.56 80.6359 19C80.6359 19.44 80.7199 19.832 80.8879 20.176C81.0559 20.52 81.2879 20.788 81.5839 20.98C81.8799 21.172 82.2159 21.268 82.5919 21.268ZM91.4831 22L91.4351 20.884V13.6H92.3951V22H91.4831ZM89.4071 22.144C88.8711 22.144 88.3991 22.012 87.9911 21.748C87.5831 21.484 87.2631 21.116 87.0311 20.644C86.8071 20.164 86.6951 19.616 86.6951 19C86.6951 18.376 86.8071 17.828 87.0311 17.356C87.2631 16.884 87.5831 16.516 87.9911 16.252C88.3991 15.988 88.8711 15.856 89.4071 15.856C89.9111 15.856 90.3511 15.988 90.7271 16.252C91.1111 16.516 91.4071 16.884 91.6151 17.356C91.8231 17.828 91.9271 18.376 91.9271 19C91.9271 19.616 91.8231 20.164 91.6151 20.644C91.4071 21.116 91.1111 21.484 90.7271 21.748C90.3511 22.012 89.9111 22.144 89.4071 22.144ZM89.6231 21.268C89.9751 21.268 90.2871 21.172 90.5591 20.98C90.8311 20.788 91.0431 20.52 91.1951 20.176C91.3551 19.832 91.4351 19.44 91.4351 19C91.4351 18.56 91.3551 18.168 91.1951 17.824C91.0431 17.48 90.8311 17.212 90.5591 17.02C90.2871 16.828 89.9711 16.732 89.6111 16.732C89.2351 16.732 88.8991 16.828 88.6031 17.02C88.3151 17.212 88.0871 17.48 87.9191 17.824C87.7511 18.168 87.6671 18.56 87.6671 19C87.6671 19.44 87.7511 19.832 87.9191 20.176C88.0871 20.52 88.3191 20.788 88.6151 20.98C88.9111 21.172 89.2471 21.268 89.6231 21.268Z" fill="#1D2025"/>
</svg>
