<svg width="64" height="65" viewBox="0 0 64 65" fill="none" xmlns="http://www.w3.org/2000/svg">
<g clip-path="url(#clip0_33901_57048)">
<path d="M55.1984 9.10608C49.2879 0.592792 37.5211 -1.90155 29.062 3.46671L14.1501 13.0103C10.0832 15.5588 7.26354 19.7341 6.45016 24.4517C5.74524 28.4101 6.34171 32.477 8.23958 36.0016C6.93819 37.9537 6.07059 40.1227 5.69101 42.4001C4.82341 47.2261 5.96214 52.2148 8.78183 56.1732C14.7466 64.6865 26.4592 67.1808 34.9183 61.8126L49.8301 52.3232C53.897 49.7747 56.7167 45.5994 57.5301 40.8818C58.235 36.9234 57.6385 32.8565 55.7406 29.3319C57.042 27.3798 57.9096 25.2108 58.2892 22.9334C59.211 18.0532 58.0723 13.0645 55.1984 9.10608Z" fill="#FF3E00"/>
<path d="M27.5994 56.9864C22.7734 58.2335 17.7304 56.3357 14.9107 52.2688C13.1755 49.8829 12.5248 46.9005 13.0129 43.9724C13.1213 43.4844 13.2298 43.0506 13.3382 42.5626L13.6093 41.695L14.3685 42.2372C16.1579 43.5386 18.11 44.5146 20.2248 45.1653L20.767 45.328L20.7128 45.8703C20.6586 46.6294 20.8755 47.4428 21.3093 48.0935C22.1769 49.3407 23.6952 49.9371 25.1593 49.5576C25.4846 49.4491 25.81 49.3407 26.0811 49.178L40.9387 39.6886C41.6979 39.2006 42.1859 38.4957 42.3486 37.6281C42.5112 36.7605 42.2943 35.8387 41.8063 35.1338C40.9387 33.8866 39.4204 33.3443 37.9564 33.7239C37.631 33.8324 37.3057 33.9408 37.0345 34.1035L31.3409 37.7365C30.4191 38.333 29.3888 38.7668 28.3043 39.0379C23.4783 40.2851 18.4354 38.3872 15.6157 34.3204C13.9347 31.9345 13.2298 28.9521 13.772 26.024C14.26 23.2043 15.9952 20.6557 18.4354 19.1374L33.3472 9.6481C34.2691 9.05163 35.2993 8.61783 36.3838 8.29248C41.2098 7.04531 46.2528 8.94318 49.0725 13.01C50.8077 15.3959 51.4584 18.3783 50.9703 21.3064C50.8619 21.7945 50.7534 22.2283 50.5908 22.7163L50.3196 23.5839L49.5605 23.0416C47.7711 21.7402 45.819 20.7642 43.7042 20.1135L43.1619 19.9508L43.2162 19.4086C43.2704 18.6494 43.0535 17.836 42.6197 17.1854C41.7521 15.9382 40.2338 15.3959 38.7697 15.7755C38.4444 15.884 38.119 15.9924 37.8479 16.1551L22.9903 25.6444C22.2311 26.1324 21.7431 26.8374 21.5804 27.705C21.4177 28.5726 21.6346 29.4944 22.1227 30.1993C22.9903 31.4465 24.5086 31.9887 25.9726 31.6091C26.298 31.5007 26.6233 31.3922 26.8945 31.2296L32.5881 27.5965C33.5099 27 34.5402 26.5662 35.6247 26.2409C40.4507 24.9937 45.4936 26.8916 48.3133 30.9584C50.0485 33.3443 50.6992 36.3267 50.2112 39.2548C49.7232 42.0745 47.988 44.6231 45.5478 46.1414L30.636 55.6307C29.7142 56.2272 28.6839 56.661 27.5994 56.9864Z" fill="white"/>
</g>
<defs>
<clipPath id="clip0_33901_57048">
<rect width="64" height="64" fill="white" transform="translate(0.0078125 0.639648)"/>
</clipPath>
</defs>
</svg>
