<svg width="62" height="41" viewBox="0 0 62 41" fill="none" xmlns="http://www.w3.org/2000/svg">
<rect width="62" height="34" rx="5" fill="#DFE4ED"/>
<path d="M15.308 21V13.524H12.632V12.6H18.992V13.524H16.316V21H15.308ZM21.8748 21.144C21.2908 21.144 20.7708 21.012 20.3148 20.748C19.8668 20.476 19.5148 20.104 19.2588 19.632C19.0028 19.16 18.8748 18.616 18.8748 18C18.8748 17.384 18.9988 16.84 19.2468 16.368C19.5028 15.896 19.8548 15.528 20.3028 15.264C20.7588 14.992 21.2748 14.856 21.8508 14.856C22.4428 14.856 22.9628 14.992 23.4108 15.264C23.8668 15.528 24.2188 15.896 24.4668 16.368C24.7228 16.84 24.8508 17.384 24.8508 18C24.8508 18.616 24.7228 19.16 24.4668 19.632C24.2188 20.104 23.8708 20.476 23.4228 20.748C22.9748 21.012 22.4588 21.144 21.8748 21.144ZM21.8748 20.256C22.2748 20.256 22.6228 20.16 22.9188 19.968C23.2148 19.776 23.4468 19.512 23.6148 19.176C23.7908 18.84 23.8788 18.448 23.8788 18C23.8788 17.552 23.7908 17.16 23.6148 16.824C23.4468 16.488 23.2108 16.224 22.9068 16.032C22.6028 15.84 22.2508 15.744 21.8508 15.744C21.4588 15.744 21.1108 15.84 20.8068 16.032C20.5108 16.224 20.2748 16.488 20.0988 16.824C19.9308 17.16 19.8468 17.552 19.8468 18C19.8468 18.44 19.9308 18.832 20.0988 19.176C20.2748 19.512 20.5148 19.776 20.8188 19.968C21.1308 20.16 21.4828 20.256 21.8748 20.256ZM28.8358 21.144C28.2518 21.144 27.7318 21.012 27.2758 20.748C26.8278 20.476 26.4758 20.104 26.2198 19.632C25.9638 19.16 25.8358 18.616 25.8358 18C25.8358 17.384 25.9598 16.84 26.2078 16.368C26.4638 15.896 26.8158 15.528 27.2638 15.264C27.7198 14.992 28.2358 14.856 28.8118 14.856C29.4038 14.856 29.9238 14.992 30.3718 15.264C30.8278 15.528 31.1798 15.896 31.4278 16.368C31.6838 16.84 31.8118 17.384 31.8118 18C31.8118 18.616 31.6838 19.16 31.4278 19.632C31.1798 20.104 30.8318 20.476 30.3838 20.748C29.9358 21.012 29.4198 21.144 28.8358 21.144ZM28.8358 20.256C29.2358 20.256 29.5838 20.16 29.8798 19.968C30.1758 19.776 30.4078 19.512 30.5758 19.176C30.7518 18.84 30.8398 18.448 30.8398 18C30.8398 17.552 30.7518 17.16 30.5758 16.824C30.4078 16.488 30.1718 16.224 29.8678 16.032C29.5638 15.84 29.2118 15.744 28.8118 15.744C28.4198 15.744 28.0718 15.84 27.7678 16.032C27.4718 16.224 27.2358 16.488 27.0598 16.824C26.8918 17.16 26.8078 17.552 26.8078 18C26.8078 18.44 26.8918 18.832 27.0598 19.176C27.2358 19.512 27.4758 19.776 27.7798 19.968C28.0918 20.16 28.4438 20.256 28.8358 20.256ZM33.1447 21V12.6H34.1047V21H33.1447ZM38.0374 21.144C37.4534 21.144 37.0014 20.992 36.6814 20.688C36.3614 20.384 36.2014 19.956 36.2014 19.404V13.128H37.1614V19.308C37.1614 19.612 37.2414 19.848 37.4014 20.016C37.5694 20.176 37.8014 20.256 38.0974 20.256C38.1934 20.256 38.2854 20.244 38.3734 20.22C38.4694 20.188 38.5934 20.116 38.7454 20.004L39.1174 20.784C38.9094 20.92 38.7214 21.012 38.5534 21.06C38.3854 21.116 38.2134 21.144 38.0374 21.144ZM35.1574 15.852V15H38.9614V15.852H35.1574ZM40.3766 21V15H41.3366V21H40.3766ZM40.8686 13.608C40.7086 13.608 40.5686 13.548 40.4486 13.428C40.3286 13.308 40.2686 13.168 40.2686 13.008C40.2686 12.84 40.3286 12.7 40.4486 12.588C40.5686 12.468 40.7086 12.408 40.8686 12.408C41.0366 12.408 41.1766 12.468 41.2886 12.588C41.4086 12.7 41.4686 12.84 41.4686 13.008C41.4686 13.168 41.4086 13.308 41.2886 13.428C41.1766 13.548 41.0366 13.608 40.8686 13.608ZM43.1656 23.4V15H44.0656L44.1256 16.104V23.4H43.1656ZM46.1536 21.144C45.6496 21.144 45.2056 21.012 44.8216 20.748C44.4456 20.484 44.1536 20.116 43.9456 19.644C43.7376 19.164 43.6336 18.616 43.6336 18C43.6336 17.376 43.7376 16.828 43.9456 16.356C44.1536 15.884 44.4456 15.516 44.8216 15.252C45.2056 14.988 45.6496 14.856 46.1536 14.856C46.6896 14.856 47.1616 14.988 47.5696 15.252C47.9776 15.516 48.2936 15.884 48.5176 16.356C48.7496 16.828 48.8656 17.376 48.8656 18C48.8656 18.616 48.7496 19.164 48.5176 19.644C48.2936 20.116 47.9776 20.484 47.5696 20.748C47.1616 21.012 46.6896 21.144 46.1536 21.144ZM45.9376 20.268C46.3136 20.268 46.6456 20.172 46.9336 19.98C47.2296 19.788 47.4616 19.52 47.6296 19.176C47.8056 18.832 47.8936 18.44 47.8936 18C47.8936 17.56 47.8096 17.168 47.6416 16.824C47.4816 16.48 47.2536 16.212 46.9576 16.02C46.6616 15.828 46.3256 15.732 45.9496 15.732C45.5976 15.732 45.2816 15.828 45.0016 16.02C44.7296 16.212 44.5136 16.48 44.3536 16.824C44.2016 17.168 44.1256 17.56 44.1256 18C44.1256 18.44 44.2016 18.832 44.3536 19.176C44.5136 19.52 44.7296 19.788 45.0016 19.98C45.2736 20.172 45.5856 20.268 45.9376 20.268Z" fill="#1D2025"/>
<path d="M29.5344 39.4217C30.3257 40.2738 31.6743 40.2738 32.4656 39.4217L37.5 34L24.5 34L29.5344 39.4217Z" fill="#DFE4ED"/>
</svg>
