<svg width="51" height="64" viewBox="0 0 51 64" fill="none" xmlns="http://www.w3.org/2000/svg">
<g clip-path="url(#clip0_33902_57075)">
<path d="M16.5112 54.5114C13.6199 51.8684 12.7759 46.3152 13.9805 42.292C16.0692 44.8285 18.9632 45.6321 21.9609 46.0856C26.5886 46.7856 31.1334 46.5238 35.4323 44.4086C35.9241 44.1664 36.3786 43.8444 36.916 43.5183C37.3194 44.6886 37.4244 45.87 37.2834 47.0725C36.9409 50.001 35.4835 52.2632 33.1655 53.978C32.2386 54.664 31.2577 55.2771 30.3004 55.9238C27.3594 57.9116 26.5637 60.2424 27.6688 63.6326C27.6951 63.7157 27.7186 63.7983 27.778 63.9998C26.2764 63.3275 25.1795 62.349 24.3438 61.0624C23.4611 59.7048 23.0411 58.2028 23.019 56.5776C23.008 55.7867 23.008 54.9887 22.9016 54.209C22.6419 52.308 21.7495 51.4569 20.0683 51.4079C18.343 51.3575 16.9782 52.4241 16.6162 54.104C16.5886 54.2328 16.5485 54.3602 16.5084 54.51L16.5112 54.5114Z" fill="white"/>
<path d="M0.0078125 41.6219C0.0078125 41.6219 8.5694 37.4512 17.1549 37.4512L23.6281 17.4178C23.8704 16.449 24.578 15.7906 25.3769 15.7906C26.1757 15.7906 26.8833 16.449 27.1257 17.4178L33.5989 37.4512C43.7671 37.4512 50.7459 41.6219 50.7459 41.6219C50.7459 41.6219 36.2034 2.00513 36.175 1.92565C35.7576 0.754363 35.053 0 34.103 0H16.6522C15.7023 0 15.0261 0.754363 14.5803 1.92565C14.5489 2.00364 0.0078125 41.6219 0.0078125 41.6219Z" fill="white"/>
</g>
<defs>
<clipPath id="clip0_33902_57075">
<rect width="50.8411" height="64" fill="white" transform="translate(0.0078125)"/>
</clipPath>
</defs>
</svg>
