<svg width="65" height="64" viewBox="0 0 65 64" fill="none" xmlns="http://www.w3.org/2000/svg">
<g clip-path="url(#clip0_34725_75679)">
<path d="M32.7461 64C50.4192 64 64.7461 49.6731 64.7461 32C64.7461 14.3269 50.4192 0 32.7461 0C15.073 0 0.746094 14.3269 0.746094 32C0.746094 49.6731 15.073 64 32.7461 64Z" fill="#663399"/>
<path d="M14.9158 49.8284C10.1158 45.0284 7.60156 38.6284 7.60156 32.4569L32.5158 57.1426C26.1158 56.9141 19.7158 54.6284 14.9158 49.8284ZM38.2301 56.4569L8.28728 26.5141C10.8016 15.3141 20.8587 6.85693 32.7444 6.85693C41.2016 6.85693 48.5158 10.9712 53.0873 17.1426L49.6587 20.1141C45.773 14.8569 39.6016 11.4284 32.7444 11.4284C23.8301 11.4284 16.2873 17.1426 13.3158 25.1426L39.6016 51.4284C46.2301 49.1426 51.2587 43.4284 52.8587 36.5712H41.8873V31.9998H57.8873C57.8873 43.8855 49.4301 53.9426 38.2301 56.4569Z" fill="white"/>
</g>
<defs>
<clipPath id="clip0_34725_75679">
<rect width="64" height="64" fill="white" transform="translate(0.746094)"/>
</clipPath>
</defs>
</svg>
