<svg width="64" height="64" viewBox="0 0 64 64" fill="none" xmlns="http://www.w3.org/2000/svg">
<g clip-path="url(#clip0_33902_57058)">
<path d="M29.912 0.0172226C29.7744 0.029733 29.3365 0.0735193 28.9423 0.104795C19.8522 0.924225 11.3376 5.82829 5.94486 13.3658C2.94193 17.5568 1.0213 22.3107 0.295594 27.3461C0.039093 29.1039 0.0078125 29.623 0.0078125 32.0063C0.0078125 34.3895 0.039093 34.9087 0.295594 36.6664C2.03479 48.6826 10.5869 58.7785 22.1857 62.5191C24.2627 63.1884 26.4524 63.645 28.9423 63.9202C29.912 64.0266 34.1036 64.0266 35.0733 63.9202C39.3713 63.4449 43.0123 62.3815 46.6033 60.5487C47.1539 60.2672 47.2602 60.1922 47.1851 60.1296C47.1351 60.0921 44.789 56.9457 41.9738 53.1426L36.8563 46.2306L30.4438 36.7414C26.9153 31.5246 24.0125 27.2586 23.9875 27.2586C23.9625 27.2523 23.9374 31.4683 23.9249 36.6163C23.9062 45.6301 23.8999 45.9929 23.7873 46.2055C23.6246 46.5121 23.4995 46.6372 23.2367 46.7748C23.0366 46.8749 22.8614 46.8936 21.9167 46.8936H20.8344L20.5466 46.7122C20.3589 46.5934 20.2213 46.437 20.1275 46.2556L19.9961 45.9741L20.0086 33.4324L20.0274 20.8845L20.2213 20.6406C20.3214 20.5092 20.5341 20.3403 20.6843 20.259C20.9408 20.1339 21.0409 20.1214 22.1232 20.1214C23.3994 20.1214 23.6121 20.1714 23.9437 20.5342C24.0375 20.6343 27.5097 25.8637 31.6637 32.1626C35.8178 38.4616 41.4983 47.0625 44.2886 51.2848L49.356 58.9599L49.6125 58.791C51.8835 57.3148 54.2858 55.213 56.1877 53.0237C60.2354 48.3761 62.8442 42.7089 63.72 36.6664C63.9765 34.9087 64.0078 34.3895 64.0078 32.0063C64.0078 29.623 63.9765 29.1039 63.72 27.3461C61.9808 15.3299 53.4287 5.23405 41.8299 1.49345C39.7842 0.830397 37.607 0.373768 35.1671 0.0985401C34.5666 0.0359882 30.4313 -0.0328189 29.912 0.0172226ZM43.0123 19.3708C43.3126 19.5209 43.5566 19.8086 43.6442 20.1089C43.6942 20.2715 43.7067 23.7494 43.6942 31.5872L43.6755 42.834L41.6923 39.794L39.7028 36.754V28.5784C39.7028 23.2928 39.7279 20.3216 39.7654 20.1777C39.8655 19.8274 40.0844 19.5522 40.3847 19.3895C40.6412 19.2582 40.7351 19.2457 41.7173 19.2457C42.6432 19.2457 42.8059 19.2582 43.0123 19.3708Z" fill="white"/>
</g>
<defs>
<clipPath id="clip0_33902_57058">
<rect width="64" height="64" fill="white" transform="translate(0.0078125)"/>
</clipPath>
</defs>
</svg>
