<svg width="65" height="64" viewBox="0 0 65 64" fill="none" xmlns="http://www.w3.org/2000/svg">
<g clip-path="url(#clip0_32727_207334)">
<path d="M33.0949 25.8149C29.7094 25.8149 26.9648 28.5595 26.9648 31.945C26.9648 35.3305 29.7094 38.075 33.0949 38.075C36.4804 38.075 39.2249 35.3305 39.2249 31.945C39.2249 28.5595 36.4804 25.8149 33.0949 25.8149Z" fill="#087EA4"/>
<path d="M64.9799 31.9993C64.9799 27.1867 60.5233 22.9659 53.4274 20.1881C53.5223 19.5625 53.6081 18.9437 53.669 18.3362C54.3689 11.4211 52.7027 6.43016 48.9799 4.2802C44.8145 1.87504 38.931 3.62076 32.9821 8.38138C27.0332 3.62076 21.1497 1.87504 16.9844 4.2802C13.2615 6.43016 11.5954 11.4211 12.2952 18.3362C12.3562 18.9437 12.4397 19.5648 12.5368 20.1926C11.9453 20.4184 11.3651 20.6578 10.8074 20.9085C4.47245 23.7563 0.984375 27.6994 0.984375 31.9993C0.984375 36.8119 5.44099 41.0328 12.5368 43.8105C12.4397 44.4361 12.3562 45.0549 12.2952 45.6624C11.5954 52.5775 13.2615 57.5685 16.9844 59.7184C18.2643 60.4442 19.7147 60.8153 21.1859 60.7934C24.7123 60.7934 28.8303 58.937 32.9821 55.6172C37.1317 58.937 41.2519 60.7934 44.7829 60.7934C46.254 60.815 47.7043 60.4439 48.9844 59.7184C52.7072 57.5685 54.3734 52.5775 53.6735 45.6624C53.6126 45.0549 53.5268 44.4361 53.432 43.8105C60.5278 41.0373 64.9844 36.8096 64.9844 31.9993M44.7558 6.254C45.7017 6.23118 46.6367 6.46033 47.465 6.91796C50.05 8.41074 51.2104 12.46 50.646 18.0268C50.6076 18.4062 50.5625 18.7902 50.5083 19.1763C47.5578 18.2875 44.5365 17.6536 41.4777 17.2816C39.6234 14.816 37.5614 12.5138 35.3143 10.4004C38.843 7.67225 42.155 6.254 44.7535 6.254M43.5412 38.0969C42.3993 40.0793 41.156 42.0015 39.816 43.8557C37.5448 44.0891 35.2631 44.2052 32.9799 44.2035C30.6974 44.2051 28.4164 44.089 26.1459 43.8557C24.8096 42.0014 23.57 40.0793 22.4321 38.0969C21.2903 36.1199 20.2526 34.0846 19.3233 31.9993C20.2526 29.914 21.2903 27.8787 22.4321 25.9017C23.5682 23.9273 24.804 22.012 26.1347 20.1632C28.4093 19.9241 30.6949 19.805 32.9821 19.8064C35.2645 19.805 37.5455 19.9211 39.816 20.1542C41.1513 22.0058 42.3916 23.9241 43.5321 25.9017C44.673 27.8792 45.7107 29.9144 46.6409 31.9993C45.7107 34.0842 44.673 36.1195 43.5321 38.0969M48.1942 35.8385C48.9107 37.793 49.499 39.7921 49.9552 41.8232C47.9754 42.4406 45.9572 42.9272 43.9137 43.2798C44.6903 42.1085 45.4429 40.8897 46.1713 39.6235C46.8915 38.3724 47.5666 37.11 48.2032 35.8476M28.6948 47.1145C30.0991 47.2003 31.5327 47.25 32.9844 47.25C34.436 47.25 35.8787 47.2003 37.2852 47.1145C35.9516 48.7123 34.5149 50.2211 32.9844 51.6312C31.4571 50.2213 30.0242 48.7125 28.6948 47.1145ZM22.0528 43.2753C20.0086 42.9242 17.9897 42.4391 16.0091 41.8232C16.4634 39.7953 17.0494 37.7992 17.7633 35.8476C18.3909 37.11 19.0637 38.3724 19.7952 39.6235C20.5266 40.8747 21.2829 42.1077 22.0528 43.2798M17.7633 28.1488C17.052 26.2044 16.4675 24.2159 16.0136 22.1958C17.9893 21.5791 20.0028 21.091 22.0415 20.7346C21.2694 21.9022 20.5131 23.1127 19.7839 24.3751C19.0546 25.6375 18.3886 26.8841 17.752 28.1488M37.2717 16.8818C35.8674 16.796 34.4338 16.7463 32.9708 16.7463C31.5199 16.7463 30.0901 16.7915 28.6813 16.8818C30.0106 15.2839 31.4436 13.775 32.9708 12.3651C34.502 13.7747 35.9387 15.2835 37.2717 16.8818ZM46.1668 24.3751C45.4353 23.1074 44.679 21.8879 43.8979 20.7165C45.9468 21.0692 47.9703 21.5566 49.9552 22.1754C49.4997 24.203 48.9138 26.1991 48.201 28.1511C47.5733 26.8886 46.8983 25.6262 46.1691 24.3773M15.3273 18.0291C14.7561 12.4645 15.9233 8.413 18.506 6.92022C19.3346 6.4633 20.2694 6.2342 21.2152 6.25626C23.8138 6.25626 27.1258 7.67451 30.6545 10.4026C28.4059 12.5176 26.3424 14.8213 24.4866 17.2884C21.4286 17.6621 18.4076 18.2937 15.4559 19.1763C15.404 18.7902 15.3566 18.4085 15.3205 18.0291M12.0582 23.6885C12.4059 23.538 12.7603 23.3874 13.1215 23.2369C13.8317 26.2338 14.7946 29.1651 16 31.9993C14.7924 34.839 13.8286 37.7765 13.1193 40.7798C7.36677 38.4198 4.03221 35.1497 4.03221 31.9993C4.03221 29.0138 6.96716 25.9853 12.0582 23.6885ZM18.506 57.0784C15.9233 55.5856 14.7561 51.5341 15.3273 45.9695C15.3634 45.5901 15.4108 45.2085 15.4627 44.82C18.4133 45.7086 21.4345 46.3425 24.4933 46.7148C26.3482 49.1813 28.4102 51.4849 30.6567 53.6005C25.7373 57.4013 21.2423 58.6547 18.5128 57.0784M50.6438 45.9695C51.2082 51.5364 50.0477 55.5856 47.4627 57.0784C44.7355 58.6593 40.2382 57.4013 35.321 53.6005C37.5669 51.4848 39.6281 49.1812 41.4822 46.7148C44.541 46.3428 47.5623 45.7088 50.5128 44.82C50.567 45.2085 50.6121 45.5901 50.6505 45.9695M52.8585 40.7753C52.1472 37.7737 51.1827 34.8379 49.9755 31.9993C51.1822 29.1592 52.1459 26.2218 52.8563 23.2188C58.5975 25.5788 61.9411 28.8489 61.9411 31.9993C61.9411 35.1497 58.6065 38.4198 52.854 40.7798" fill="#087EA4"/>
</g>
<defs>
<clipPath id="clip0_32727_207334">
<rect width="64" height="64" fill="white" transform="translate(0.984375)"/>
</clipPath>
</defs>
</svg>
