<svg width="64" height="58" viewBox="0 0 64 58" fill="none" xmlns="http://www.w3.org/2000/svg">
<path d="M32.1183 22.8711C28.7328 22.8711 25.9883 25.6156 25.9883 29.0011C25.9883 32.3867 28.7328 35.1312 32.1183 35.1312C35.5039 35.1312 38.2484 32.3867 38.2484 29.0011C38.2484 25.6156 35.5039 22.8711 32.1183 22.8711Z" fill="#58C4DC"/>
<path d="M64.0033 29.0555C64.0033 24.2429 59.5467 20.022 52.4509 17.2442C52.5457 16.6187 52.6315 15.9999 52.6924 15.3924C53.3923 8.47728 51.7262 3.48631 48.0033 1.33635C43.8379 -1.0688 37.9545 0.676909 32.0056 5.43753C26.0566 0.676909 20.1732 -1.0688 16.0078 1.33635C12.2849 3.48631 10.6188 8.47728 11.3187 15.3924C11.3796 15.9999 11.4632 16.6209 11.5602 17.2488C10.9687 17.4746 10.3885 17.714 9.83087 17.9647C3.49589 20.8124 0.0078125 24.7555 0.0078125 29.0555C0.0078125 33.868 4.46442 38.0889 11.5602 40.8667C11.4632 41.4923 11.3796 42.111 11.3187 42.7185C10.6188 49.6336 12.2849 54.6246 16.0078 56.7746C17.2878 57.5004 18.7381 57.8715 20.2093 57.8496C23.7358 57.8496 27.8537 55.9932 32.0056 52.6734C36.1551 55.9932 40.2753 57.8496 43.8063 57.8496C45.2774 57.8712 46.7277 57.5001 48.0078 56.7746C51.7307 54.6246 53.3968 49.6336 52.697 42.7185C52.636 42.111 52.5502 41.4923 52.4554 40.8667C59.5512 38.0934 64.0078 33.8658 64.0078 29.0555M43.7792 3.31016C44.7252 3.28733 45.6602 3.51648 46.4884 3.97411C49.0734 5.46689 50.2339 9.51613 49.6694 15.083C49.6311 15.4624 49.5859 15.8463 49.5317 16.2325C46.5812 15.3437 43.56 14.7098 40.5011 14.3377C38.6468 11.8722 36.5848 9.57 34.3377 7.45651C37.8664 4.72841 41.1784 3.31016 43.777 3.31016M42.5646 35.153C41.4228 37.1355 40.1794 39.0576 38.8395 40.9119C36.5682 41.1452 34.2865 41.2613 32.0033 41.2597C29.7209 41.2612 27.4399 41.1452 25.1694 40.9119C23.833 39.0576 22.5934 37.1354 21.4555 35.153C20.3138 33.1761 19.2761 31.1408 18.3467 29.0555C19.2761 26.9701 20.3138 24.9348 21.4555 22.9579C22.5916 20.9835 23.8274 19.0682 25.1581 17.2194C27.4327 16.9802 29.7184 16.8611 32.0056 16.8626C34.288 16.8612 36.569 16.9773 38.8395 17.2104C40.1747 19.062 41.415 20.9803 42.5556 22.9579C43.6965 24.9353 44.7341 26.9706 45.6644 29.0555C44.7341 31.1404 43.6965 33.1756 42.5556 35.153M47.2176 32.8947C47.9342 34.8491 48.5224 36.8482 48.9786 38.8793C46.9988 39.4967 44.9807 39.9833 42.9371 40.336C43.7138 39.1646 44.4663 37.9459 45.1948 36.6797C45.915 35.4286 46.59 34.1661 47.2267 32.9037M27.7183 44.1707C29.1225 44.2565 30.5561 44.3062 32.0078 44.3062C33.4595 44.3062 34.9021 44.2565 36.3086 44.1707C34.9751 45.7685 33.5384 47.2773 32.0078 48.6874C30.4805 47.2775 29.0476 45.7687 27.7183 44.1707ZM21.0762 40.3315C19.032 39.9804 17.0131 39.4953 15.0325 38.8793C15.4869 36.8515 16.0728 34.8554 16.7867 32.9037C17.4143 34.1661 18.0871 35.4286 18.8186 36.6797C19.5501 37.9308 20.3064 39.1639 21.0762 40.336M16.7867 25.205C16.0754 23.2605 15.491 21.272 15.037 19.2519C17.0127 18.6353 19.0262 18.1472 21.065 17.7908C20.2928 18.9583 19.5365 20.1688 18.8073 21.4312C18.0781 22.6937 17.4121 23.9403 16.7754 25.205M36.2951 13.938C34.8908 13.8522 33.4572 13.8025 31.9943 13.8025C30.5433 13.8025 29.1135 13.8477 27.7047 13.938C29.0341 12.34 30.467 10.8312 31.9943 9.42128C33.5254 10.8308 34.9621 12.3396 36.2951 13.938ZM45.1903 21.4312C44.4588 20.1635 43.7025 18.944 42.9213 17.7727C44.9703 18.1254 46.9937 18.6127 48.9786 19.2316C48.5232 21.2592 47.9372 23.2552 47.2244 25.2072C46.5968 23.9448 45.9217 22.6824 45.1925 21.4335M14.3507 15.0852C13.7795 9.52065 14.9467 5.46915 17.5295 3.97637C18.358 3.51945 19.2928 3.29035 20.2387 3.31242C22.8372 3.31242 26.1492 4.73067 29.6779 7.45877C27.4293 9.57376 25.3658 11.8774 23.51 14.3445C20.452 14.7183 17.4311 15.3499 14.4794 16.2325C14.4275 15.8463 14.38 15.4647 14.3439 15.0852M11.0816 20.7447C11.4293 20.5941 11.7837 20.4436 12.145 20.293C12.8551 23.29 13.8181 26.2213 15.0235 29.0555C13.8158 31.8952 12.852 34.8326 12.1427 37.836C6.3902 35.476 3.05565 32.2059 3.05565 29.0555C3.05565 26.0699 5.9906 23.0415 11.0816 20.7447ZM17.5295 54.1346C14.9467 52.6418 13.7795 48.5903 14.3507 43.0257C14.3868 42.6463 14.4342 42.2646 14.4862 41.8762C17.4367 42.7648 20.458 43.3987 23.5168 43.7709C25.3716 46.2374 27.4336 48.541 29.6802 50.6567C24.7607 54.4575 20.2657 55.7109 17.5362 54.1346M49.6672 43.0257C50.2316 48.5925 49.0712 52.6418 46.4862 54.1346C43.7589 55.7154 39.2617 54.4575 34.3445 50.6567C36.5903 48.541 38.6515 46.2374 40.5056 43.7709C43.5645 43.3989 46.5858 42.765 49.5362 41.8762C49.5904 42.2646 49.6356 42.6463 49.674 43.0257M51.8819 37.8315C51.1706 34.8299 50.2061 31.894 48.9989 29.0555C50.2056 26.2154 51.1693 23.278 51.8797 20.275C57.6209 22.6349 60.9645 25.9051 60.9645 29.0555C60.9645 32.2059 57.6299 35.476 51.8774 37.836" fill="#58C4DC"/>
</svg>
