<svg width="40" height="32" viewBox="0 0 40 32" fill="none" xmlns="http://www.w3.org/2000/svg">
<g clip-path="url(#clip0_35376_54515)">
<path d="M4.41258 4.16563C4.33711 1.99844 6.02563 0 8.30797 0H31.6949C33.9773 0 35.6658 1.99844 35.5903 4.16563C35.5178 6.24742 35.612 8.94414 36.2906 11.143C36.9715 13.3486 38.1196 14.7427 40 14.9219V16.9531C38.1196 17.1323 36.9715 18.5264 36.2906 20.732C35.612 22.9309 35.5178 25.6276 35.5903 27.7095C35.6658 29.8766 33.9773 31.875 31.6949 31.875H8.30797C6.02563 31.875 4.33711 29.8766 4.41266 27.7095C4.48508 25.6276 4.39094 22.9309 3.71219 20.732C3.03141 18.5264 1.88047 17.1323 0 16.9531V14.9219C1.88039 14.7427 3.03141 13.3486 3.71219 11.143C4.39094 8.94414 4.48508 6.24742 4.41258 4.16563Z" fill="url(#paint0_linear_35376_54515)"/>
<g filter="url(#filter0_d_35376_54515)">
<path d="M20.8673 24.4106C24.5624 24.4106 26.7891 22.6014 26.7891 19.6173C26.7891 17.3616 25.2003 15.7285 22.8412 15.47V15.376C24.5745 15.0941 25.9345 13.4846 25.9345 11.6871C25.9345 9.12588 23.9125 7.45752 20.8312 7.45752H13.8984V24.4106H20.8673ZM16.5945 9.60752H20.1813C22.1312 9.60752 23.2384 10.4769 23.2384 12.0512C23.2384 13.7313 21.9506 14.6711 19.6156 14.6711H16.5945V9.60752ZM16.5945 22.2607V16.6802H20.1572C22.7088 16.6802 24.0328 17.62 24.0328 19.4528C24.0328 21.2856 22.745 22.2607 20.3137 22.2607H16.5945Z" fill="url(#paint1_linear_35376_54515)"/>
<path d="M20.8673 24.4106C24.5624 24.4106 26.7891 22.6014 26.7891 19.6173C26.7891 17.3616 25.2003 15.7285 22.8412 15.47V15.376C24.5745 15.0941 25.9345 13.4846 25.9345 11.6871C25.9345 9.12588 23.9125 7.45752 20.8312 7.45752H13.8984V24.4106H20.8673ZM16.5945 9.60752H20.1813C22.1312 9.60752 23.2384 10.4769 23.2384 12.0512C23.2384 13.7313 21.9506 14.6711 19.6156 14.6711H16.5945V9.60752ZM16.5945 22.2607V16.6802H20.1572C22.7088 16.6802 24.0328 17.62 24.0328 19.4528C24.0328 21.2856 22.745 22.2607 20.3137 22.2607H16.5945Z" stroke="white" stroke-width="0.078125"/>
</g>
</g>
<defs>
<filter id="filter0_d_35376_54515" x="12.6094" y="6.48096" width="15.4688" height="19.5312" filterUnits="userSpaceOnUse" color-interpolation-filters="sRGB">
<feFlood flood-opacity="0" result="BackgroundImageFix"/>
<feColorMatrix in="SourceAlpha" type="matrix" values="0 0 0 0 0 0 0 0 0 0 0 0 0 0 0 0 0 0 127 0" result="hardAlpha"/>
<feOffset dy="0.3125"/>
<feGaussianBlur stdDeviation="0.625"/>
<feColorMatrix type="matrix" values="0 0 0 0 0 0 0 0 0 0 0 0 0 0 0 0 0 0 0.15 0"/>
<feBlend mode="normal" in2="BackgroundImageFix" result="effect1_dropShadow_35376_54515"/>
<feBlend mode="normal" in="SourceGraphic" in2="effect1_dropShadow_35376_54515" result="shape"/>
</filter>
<linearGradient id="paint0_linear_35376_54515" x1="5.94367" y1="0.843595" x2="40.8969" y2="28.5895" gradientUnits="userSpaceOnUse">
<stop stop-color="#9013FE"/>
<stop offset="1" stop-color="#6610F2"/>
</linearGradient>
<linearGradient id="paint1_linear_35376_54515" x1="15.1177" y1="8.57338" x2="22.9307" y2="21.7868" gradientUnits="userSpaceOnUse">
<stop stop-color="white"/>
<stop offset="1" stop-color="#F1E5FC"/>
</linearGradient>
<clipPath id="clip0_35376_54515">
<rect width="40" height="31.875" fill="white"/>
</clipPath>
</defs>
</svg>
