<svg width="64" height="64" viewBox="0 0 64 64" fill="none" xmlns="http://www.w3.org/2000/svg">
<g clip-path="url(#clip0_32727_207335)">
<path d="M6.55113 50.1029L31.935 64.0544L57.4496 49.9139L62.2059 10.4664L31.903 0.0576172L1.79297 10.654L6.55113 50.1029Z" fill="#B3B3B3"/>
<path d="M31.832 60.7214L54.7693 48.027L59.2019 12.7466L31.832 3.41309V60.7214Z" fill="#A6120D"/>
<path d="M31.8324 60.7206V3.41113L5.17188 12.914L9.2491 48.1947L31.8324 60.7206Z" fill="#DD1B16"/>
<path d="M39.3652 33.9211L31.8313 37.4441H23.8906L20.1578 46.7805L13.2148 46.9091L31.8313 5.49414L39.3652 33.9211ZM38.637 32.1474L31.8812 18.7731L26.3397 31.9173H31.8309L38.637 32.1474Z" fill="#F2F2F2"/>
<path d="M38.1698 31.9275H31.8462L31.832 37.4357L40.576 37.4441L44.6627 46.9105L51.306 47.0336L31.832 5.49414L31.8819 18.7731L38.1698 31.9275Z" fill="#B3B3B3"/>
</g>
<defs>
<clipPath id="clip0_32727_207335">
<rect width="64" height="64" fill="white"/>
</clipPath>
</defs>
</svg>
