<svg width="65" height="64" viewBox="0 0 65 64" fill="none" xmlns="http://www.w3.org/2000/svg">
<g clip-path="url(#clip0_32727_207332)">
<path d="M63.6144 14.6733C63.6375 14.7586 63.6492 14.8466 63.6495 14.935V28.6724C63.6495 28.8487 63.6029 29.0219 63.5145 29.1745C63.4262 29.3271 63.2991 29.4536 63.1461 29.5413L51.6161 36.1797V49.3374C51.6161 49.6955 51.4258 50.026 51.1152 50.2063L27.0472 64.0614C26.9921 64.0927 26.932 64.1128 26.8719 64.134C26.8494 64.1416 26.8281 64.1553 26.8043 64.1616C26.6361 64.2059 26.4592 64.2059 26.291 64.1616C26.2634 64.1541 26.2384 64.1391 26.2121 64.129C26.157 64.109 26.0994 64.0915 26.0468 64.0614L1.98379 50.2063C1.83093 50.1185 1.70391 49.9919 1.61554 49.8394C1.52718 49.6868 1.48059 49.5137 1.48047 49.3374V8.12511C1.48047 8.03496 1.49299 7.94732 1.51553 7.86218C1.52304 7.83338 1.54057 7.80709 1.55058 7.77829C1.56936 7.72571 1.58689 7.67187 1.61444 7.62304C1.63322 7.59049 1.66076 7.56419 1.6833 7.53415C1.7121 7.49408 1.73839 7.45276 1.77219 7.41771C1.80099 7.38891 1.83855 7.36762 1.87111 7.34258C1.90742 7.31253 1.93997 7.27998 1.98129 7.25619L14.0147 0.328632C14.167 0.240964 14.3397 0.194824 14.5155 0.194824C14.6913 0.194824 14.864 0.240964 15.0163 0.328632L27.0485 7.25619H27.051C27.091 7.28123 27.1248 7.31253 27.1611 7.34133C27.1937 7.36637 27.23 7.38891 27.2588 7.41645C27.2939 7.45276 27.3189 7.49408 27.3489 7.53415C27.3702 7.56419 27.399 7.59049 27.4166 7.62304C27.4454 7.67312 27.4616 7.72571 27.4817 7.77829C27.4917 7.80709 27.5092 7.83338 27.5167 7.86343C27.5398 7.94876 27.5516 8.03673 27.5518 8.12511V33.8659L37.5781 28.0927V14.9337C37.5781 14.8461 37.5907 14.7572 37.6132 14.6733C37.622 14.6433 37.6382 14.617 37.6483 14.5882C37.6683 14.5356 37.6858 14.4817 37.7134 14.4329C37.7321 14.4004 37.7597 14.3741 37.781 14.344C37.811 14.3039 37.8361 14.2626 37.8711 14.2276C37.8999 14.1988 37.9362 14.1775 37.9688 14.1525C38.0063 14.1224 38.0389 14.0898 38.079 14.0661L50.1136 7.1385C50.2659 7.05071 50.4386 7.0045 50.6144 7.0045C50.7902 7.0045 50.9629 7.05071 51.1152 7.1385L63.1474 14.0661C63.19 14.0911 63.2225 14.1224 63.2601 14.1512C63.2914 14.1762 63.3277 14.1988 63.3565 14.2263C63.3915 14.2626 63.4166 14.3039 63.4466 14.344C63.4692 14.3741 63.4967 14.4004 63.5142 14.4329C63.543 14.4817 63.5593 14.5356 63.5793 14.5882C63.5906 14.617 63.6069 14.6433 63.6144 14.6733ZM61.6437 28.0927V16.6691L57.4331 19.093L51.6161 22.4422V33.8659L61.6449 28.0927H61.6437ZM49.6115 48.7577V37.3265L43.8897 40.5944L27.5505 49.9196V61.4584L49.6115 48.7577ZM3.48624 9.85919V48.7577L25.5448 61.4572V49.9208L14.0209 43.3989L14.0172 43.3964L14.0122 43.3939C13.9734 43.3714 13.9408 43.3388 13.9045 43.3113C13.8732 43.2863 13.8369 43.2662 13.8093 43.2387L13.8068 43.2349C13.7743 43.2036 13.7518 43.1648 13.7242 43.1298C13.6992 43.096 13.6691 43.0672 13.6491 43.0321L13.6478 43.0283C13.6253 42.9908 13.6115 42.9457 13.5952 42.9031C13.579 42.8656 13.5577 42.8305 13.5477 42.7905C13.5351 42.7429 13.5326 42.6915 13.5276 42.6427C13.5226 42.6052 13.5126 42.5676 13.5126 42.53V15.6324L7.69687 12.2819L3.48624 9.85919ZM14.5168 2.35444L4.49163 8.12511L14.5142 13.8958L24.5381 8.12386L14.5142 2.35444H14.5168ZM19.7303 38.3682L25.546 35.0203V9.85919L21.3354 12.2831L15.5184 15.6324V40.7934L19.7303 38.3682ZM50.6144 9.16431L40.5906 14.935L50.6144 20.7056L60.637 14.9337L50.6144 9.16431ZM49.6115 22.4422L43.7945 19.093L39.5839 16.6691V28.0927L45.3997 31.4407L49.6115 33.8659V22.4422ZM26.5464 48.1855L41.2491 39.7918L48.5986 35.5975L38.5823 29.8305L27.0497 36.4701L16.5388 42.5213L26.5464 48.1855Z" fill="#FF2D20"/>
</g>
<defs>
<clipPath id="clip0_32727_207332">
<rect width="64" height="64" fill="white" transform="translate(0.375)"/>
</clipPath>
</defs>
</svg>
