<svg width="65" height="64" viewBox="0 0 65 64" fill="none" xmlns="http://www.w3.org/2000/svg">
<g clip-path="url(#clip0_32727_207336)">
<path d="M30.0917 0.0172226C29.9541 0.029733 29.5161 0.0735193 29.122 0.104795C20.0319 0.924225 11.5173 5.82829 6.12455 13.3658C3.12162 17.5568 1.20099 22.3107 0.475281 27.3461C0.218781 29.1039 0.1875 29.623 0.1875 32.0063C0.1875 34.3895 0.218781 34.9087 0.475281 36.6664C2.21448 48.6826 10.7666 58.7785 22.3654 62.5191C24.4424 63.1884 26.6321 63.645 29.122 63.9202C30.0917 64.0266 34.2833 64.0266 35.253 63.9202C39.5509 63.4449 43.192 62.3815 46.783 60.5487C47.3335 60.2672 47.4399 60.1922 47.3648 60.1296C47.3148 60.0921 44.9687 56.9457 42.1535 53.1426L37.036 46.2306L30.6235 36.7414C27.095 31.5246 24.1922 27.2586 24.1672 27.2586C24.1421 27.2523 24.1171 31.4683 24.1046 36.6163C24.0858 45.6301 24.0796 45.9929 23.967 46.2055C23.8043 46.5121 23.6792 46.6372 23.4164 46.7748C23.2162 46.8749 23.0411 46.8936 22.0964 46.8936H21.0141L20.7263 46.7122C20.5386 46.5934 20.401 46.437 20.3071 46.2556L20.1758 45.9741L20.1883 33.4324L20.2071 20.8845L20.401 20.6406C20.5011 20.5092 20.7138 20.3403 20.8639 20.259C21.1204 20.1339 21.2205 20.1214 22.3028 20.1214C23.5791 20.1214 23.7918 20.1714 24.1234 20.5342C24.2172 20.6343 27.6894 25.8637 31.8434 32.1626C35.9975 38.4616 41.678 47.0625 44.4682 51.2848L49.5357 58.9599L49.7922 58.791C52.0632 57.3148 54.4655 55.213 56.3674 53.0237C60.4151 48.3761 63.0239 42.7089 63.8997 36.6664C64.1562 34.9087 64.1875 34.3895 64.1875 32.0063C64.1875 29.623 64.1562 29.1039 63.8997 27.3461C62.1605 15.3299 53.6084 5.23405 42.0096 1.49345C39.9638 0.830397 37.7867 0.373768 35.3468 0.0985401C34.7463 0.0359882 30.611 -0.0328189 30.0917 0.0172226ZM43.192 19.3708C43.4923 19.5209 43.7363 19.8086 43.8239 20.1089C43.8739 20.2715 43.8864 23.7494 43.8739 31.5872L43.8551 42.834L41.872 39.794L39.8825 36.754V28.5784C39.8825 23.2928 39.9075 20.3216 39.9451 20.1777C40.0452 19.8274 40.2641 19.5522 40.5644 19.3895C40.8209 19.2582 40.9148 19.2457 41.897 19.2457C42.8229 19.2457 42.9855 19.2582 43.192 19.3708Z" fill="black"/>
</g>
<defs>
<clipPath id="clip0_32727_207336">
<rect width="64" height="64" fill="white" transform="translate(0.1875)"/>
</clipPath>
</defs>
</svg>
