<svg width="65" height="64" viewBox="0 0 65 64" fill="none" xmlns="http://www.w3.org/2000/svg">
<g clip-path="url(#clip0_32727_207339)">
<path d="M36.2033 53.528H59.8833C60.6389 53.528 61.3621 53.2626 62.0166 52.888C62.6711 52.5134 63.3457 52.0434 63.7233 51.3947C64.1009 50.7459 64.3637 50.0101 64.3633 49.2611C64.3629 48.5121 64.1015 47.7765 63.7233 47.1282L47.7233 19.608C47.3457 18.9595 46.8842 18.4891 46.2299 18.1147C45.5757 17.7402 44.6389 17.4747 43.8833 17.4747C43.1277 17.4747 42.4042 17.7402 41.75 18.1147C41.0957 18.4891 40.6342 18.9595 40.2566 19.608L36.2033 26.648L28.0966 12.9942C27.7186 12.3457 27.2578 11.6624 26.6033 11.288C25.9488 10.9136 25.2256 10.8613 24.4699 10.8613C23.7143 10.8613 22.9911 10.9136 22.3366 11.288C21.6822 11.6624 21.0079 12.3457 20.6299 12.9942L0.789949 47.1282C0.411705 47.7765 0.363612 48.5121 0.363283 49.2611C0.362954 50.0101 0.412274 50.7459 0.789949 51.3947C1.16762 52.0432 1.84221 52.5134 2.49662 52.888C3.15102 53.2626 3.87428 53.528 4.62995 53.528H19.5633C25.4805 53.528 29.7873 50.8737 32.7899 45.848L40.0433 33.2613L43.8833 26.648L55.6166 46.7013H40.0433L36.2033 53.528ZM19.35 46.7013H8.89662L24.4699 19.8213L32.3633 33.2613L27.1347 42.376C25.1407 45.6368 22.8674 46.7013 19.35 46.7013Z" fill="#00DC82"/>
</g>
<defs>
<clipPath id="clip0_32727_207339">
<rect width="64" height="64" fill="white" transform="translate(0.171875)"/>
</clipPath>
</defs>
</svg>
